<svg width="100" height="100" viewBox="0 0 100 100" fill="none" xmlns="http://www.w3.org/2000/svg">
<g clip-path="url(#clip0_152_5935)">
<mask id="mask0_152_5935" style="mask-type:luminance" maskUnits="userSpaceOnUse" x="0" y="0" width="100" height="100">
<path d="M100 0H0V100H100V0Z" fill="white"/>
</mask>
<g mask="url(#mask0_152_5935)">
<path d="M70.5871 91.5026C59.1961 102.824 40.8018 102.824 29.411 91.5026L8.49417 70.5821C-2.83139 59.1926 -2.83139 40.7948 8.49417 29.4057L29.411 8.4932C40.8001 -2.83237 59.1981 -2.83237 70.5871 8.4932L91.5041 29.4098C102.825 40.8008 102.825 59.1951 91.5041 70.5861L70.5871 91.5026Z" fill="white"/>
<path d="M37.5924 80.726C35.9312 80.6895 34.6089 79.323 34.6271 77.6615C34.6453 76 35.9974 74.663 37.6589 74.663C39.3207 74.663 40.6726 76 40.6908 77.6615C40.7091 79.323 39.3867 80.6895 37.7255 80.726H37.5924ZM48.8515 23.6244C48.0838 23.5958 47.3183 23.7254 46.6028 24.0051C45.8872 24.2849 45.2369 24.7088 44.6921 25.2506C42.3214 27.6088 41.0779 32.4752 41.1861 38.951C41.3191 46.9367 43.224 62.6045 49.5045 70.6735C50.4144 71.876 51.5129 72.924 52.7569 73.776C53.9949 74.7045 55.4979 75.212 57.0449 75.2235C57.6034 75.219 58.1599 75.166 58.7089 75.0655C62.3109 74.2005 66.8234 70.191 70.1799 64.8545C70.4334 64.431 70.7959 64.083 71.2289 63.8465C71.6624 63.6095 72.1509 63.493 72.6444 63.508C73.1379 63.523 73.6184 63.6695 74.0364 63.9325C74.4544 64.1955 74.7944 64.565 75.0219 65.003C75.2494 65.4415 75.3554 65.932 75.3299 66.425C75.3039 66.918 75.1474 67.3955 74.8754 67.8075C70.6334 74.554 65.0309 79.2955 59.9024 80.485C59.9024 80.485 59.8279 80.485 59.7734 80.514C58.8654 80.6815 57.9439 80.7675 57.0199 80.772C54.3954 80.7535 51.8404 79.9285 49.7 78.4095C47.9515 77.224 46.4064 75.7635 45.1248 74.084C36.2822 62.7295 35.6793 41.4383 35.6377 39.0467C35.542 33.3818 36.3572 25.7039 40.7826 21.3117C41.8356 20.2577 43.0913 19.428 44.4738 18.8725C45.8563 18.3171 47.337 18.0476 48.8265 18.0801H49.3421C50.8339 18.0456 52.3169 18.3143 53.7019 18.8697C55.0864 19.4252 56.3444 20.256 57.3989 21.3117C61.8239 25.7039 62.6394 33.3736 62.5434 39.0467C62.4439 44.9486 61.3624 56.382 55.2444 66.6345C54.9964 67.0465 54.6464 67.3875 54.2279 67.624C53.8099 67.861 53.3374 67.986 52.8569 67.9865C52.3574 67.9875 51.8669 67.8525 51.4384 67.5955C50.1254 66.8075 49.6963 65.1065 50.4779 63.79C54.7619 56.615 56.8329 48.7252 56.9949 38.951C57.1074 32.4709 55.8599 27.6047 53.4889 25.2506C52.9449 24.7078 52.2949 24.2832 51.5789 24.0034C50.8634 23.7235 50.0974 23.5945 49.3296 23.6244H48.8515Z" fill="#ED1C24"/>
</g>
</g>
<defs>
<clipPath id="clip0_152_5935">
<rect width="100" height="100" fill="white"/>
</clipPath>
</defs>
</svg>
