<svg width="1380" height="271" viewBox="0 0 1380 271" fill="none" xmlns="http://www.w3.org/2000/svg">
<g clip-path="url(#clip0_146_5473)">
<path d="M1164.94 200.189C1160.68 188.782 1158.12 176.81 1157.35 164.657C1154.97 143.859 1148.9 128.695 1120.53 126.096C1152.59 122.41 1165.81 105.943 1165.81 83.4125C1165.81 64.1318 1154.76 39.002 1091.49 39.002H1008.08C996.391 39.002 985.338 41.601 985.338 62.6144V200.183H1034.74V133.893H1059C1081.1 133.893 1105.58 139.306 1108.18 164.006C1109.23 176.24 1111.4 188.35 1114.68 200.183L1164.94 200.189ZM1034.3 114.618V73.6672C1034.3 60.6717 1037.34 58.288 1048.38 58.288H1075.9C1107.09 58.288 1116.63 70.4224 1116.63 85.3712C1116.63 106.815 1100.16 114.618 1066.15 114.618H1034.3Z" fill="#E41F26"/>
<mask id="mask0_146_5473" style="mask-type:luminance" maskUnits="userSpaceOnUse" x="-21585" y="-4940" width="25657" height="17537">
<path d="M-21584.9 12596.9H4071.36V-4939.31H-21584.9V12596.9Z" fill="white"/>
</mask>
<g mask="url(#mask0_146_5473)">
<path d="M101.498 203.075C112.764 200.403 114.665 216.146 105.782 218.023C94.6612 220.407 92.0379 205.314 101.498 203.075ZM126.58 49.7629C146.825 45.7189 159.462 59.1511 164.517 73.7625C175.084 104.141 166.034 149.299 150.821 177.535C148.943 181.001 147.282 184.395 141.674 183.89C137.798 183.553 134.499 179.485 135.703 174.478C137.123 168.604 155.539 147.855 153.95 98.532C153.397 81.2245 147.716 59.1751 126.821 64.7838C112.017 68.7556 110.525 96.0046 111.464 112.301C112.499 130.908 115.699 149.251 120.779 165.355C125.376 179.942 132.863 195.179 146.945 202.184C162.231 209.791 180.356 189.017 186.157 180.737C188.372 177.559 190.684 173.034 194.006 172.456C199.109 171.589 203.032 174.286 203.297 178.979C203.634 184.468 193.788 195.252 191.164 198.188C165.311 227.267 134.596 225.534 114.93 189.571C101.185 164.416 92.2541 111.194 98.0072 83.7763C99.7644 75.3994 102.389 67.4556 107.059 61.6062C113.101 54.0478 117.241 51.6164 126.58 49.7629ZM269.686 143.137C270.986 132.762 269.372 121.737 266.773 112.662C259.262 86.2315 240.247 74.0513 222.674 55.1792C211.698 44.1062 200.287 31.8295 188.853 21.4306C176.336 9.99661 162.928 2.94378 142.395 0.440336C122.801 -1.91868 101.642 5.54342 89.4858 14.6425C75.6687 24.9933 60.0462 42.349 47.3605 55.2273C25.2869 77.6379 4.60977 92.2496 0.517597 126.431C-1.68914 145.438 3.10287 164.598 13.9976 180.327C26.0093 197.803 62.1652 231.576 80.5559 248.835C90.4253 258.079 107.13 268.814 126.965 270.138C146.247 271.462 164.927 267.635 180.164 256.586C189.408 249.87 206.834 231.72 214.682 223.56L219.063 219.203C223.3 215.03 227.529 210.834 231.75 206.614C251.44 186.875 265.522 176.115 269.686 143.137Z" fill="#E41F26"/>
</g>
<path d="M438.749 139.743V120.677H497.458V106.38H384.588C380.687 106.38 379.169 104.862 379.169 100.53V87.3143H494.864V40.084H351.22V53.9512H467.345V73.2318H351.22V106.38C351.22 114.613 357.935 120.677 365.733 120.677H410.579V139.743H329.561V153.61H519.988V139.743H438.749ZM439.831 166.39H409.503C400.183 197.585 355.121 217.952 338.875 220.336L346.893 232.465C376.373 228.284 403.682 214.591 424.667 193.468C445.737 214.474 473.004 228.146 502.44 232.465L510.458 220.336C494.207 218.167 449.146 197.585 439.831 166.39Z" fill="#E41F26"/>
<path d="M581.73 159.239C576.53 159.239 575.014 156.422 575.014 152.089V58.9324H626.142V44.4172H547.283V155.339C547.283 165.305 554.649 173.754 565.915 173.754H622.459C629.858 174.476 637.319 173.282 644.123 170.288V230.515H671.637V36.8347H644.123V97.9284H604.477V112.227H644.123V155.339C639.357 159.455 633.291 159.239 622.459 159.239H581.73ZM690.918 230.515H718.432V36.8347H690.918V230.515Z" fill="#E41F26"/>
<path d="M946.992 131.294C946.992 123.712 941.792 117.646 932.043 117.646H856.001V136.494H904.529C904.864 143.383 903.764 150.267 901.3 156.71C898.835 163.153 895.06 169.014 890.213 173.921C885.367 178.829 879.554 182.678 873.142 185.222C866.731 187.767 859.861 188.953 852.968 188.705C822.854 188.705 799.673 157.508 799.673 119.379C799.673 81.466 823.504 50.0526 852.968 50.0526C875.716 50.0526 891.531 65.4344 900.846 87.0988H949.158C934.21 52.869 901.713 32.0711 852.751 32.0711C788.625 32.0711 752.012 70.8505 752.012 119.379C752.012 172.24 797.94 208.853 852.751 207.12C880.915 206.253 897.163 197.154 905.396 185.239V201.487H946.992V131.294Z" fill="#E41F26"/>
<path d="M1375.3 79.517C1368.58 38.138 1312.26 31.8553 1280.19 32.0719C1240.11 32.2886 1196.57 48.5369 1197.65 88.3994C1199.38 127.395 1254.19 133.245 1277.59 136.061C1300.77 138.661 1335.44 142.344 1335.44 165.092C1335.44 176.574 1323.52 186.973 1294.71 187.839C1270.23 188.489 1244.45 177.874 1239.9 150.36H1195.27C1201.33 201.054 1259.18 207.987 1296.66 207.121C1369.45 205.387 1380.72 169.858 1379.85 147.977C1378.77 119.38 1350.6 105.298 1302.94 99.2317C1257.23 93.3823 1243.58 89.9159 1243.58 75.4008C1243.58 54.8196 1275.86 51.3533 1281.28 51.3533C1286.91 51.3533 1328.07 51.1366 1330.02 79.517H1375.3Z" fill="#E41F26"/>
</g>
<defs>
<clipPath id="clip0_146_5473">
<rect width="1379.89" height="270.389" fill="white"/>
</clipPath>
</defs>
</svg>
