<svg width="2000" height="2000" viewBox="0 0 2000 2000" fill="none" xmlns="http://www.w3.org/2000/svg">
<g clip-path="url(#clip0_146_5489)">
<path d="M1411.76 1830.05C1183.94 2056.48 816.055 2056.48 588.238 1830.05L169.902 1411.64C-56.6092 1183.85 -56.6092 815.895 169.902 588.113L588.238 169.863C816.02 -56.6483 1183.98 -56.6483 1411.76 169.863L1830.1 588.195C2056.52 816.015 2056.52 1183.9 1830.1 1411.72L1411.76 1830.05Z" fill="#ED1B23"/>
<path d="M751.86 1614.52C718.637 1613.79 692.191 1586.46 692.555 1553.23C692.918 1520 719.961 1493.26 753.191 1493.26C786.426 1493.26 813.465 1520 813.828 1553.23C814.195 1586.46 787.746 1613.79 754.523 1614.52H751.86ZM977.043 472.488C961.688 471.916 946.379 474.508 932.068 480.103C917.757 485.698 904.75 494.176 893.855 505.012C846.441 552.176 821.57 649.504 823.735 779.02C826.395 938.734 864.492 1252.09 990.102 1413.47C1008.3 1437.52 1030.27 1458.48 1055.15 1475.52C1079.91 1494.09 1109.97 1504.24 1140.91 1504.47C1152.08 1504.38 1163.21 1503.32 1174.19 1501.31C1246.23 1484.01 1336.48 1403.82 1403.61 1297.09C1408.68 1288.62 1415.93 1281.66 1424.59 1276.93C1433.26 1272.19 1443.03 1269.86 1452.9 1270.16C1462.77 1270.46 1472.38 1273.39 1480.74 1278.65C1489.1 1283.91 1495.9 1291.3 1500.45 1300.06C1505 1308.83 1507.12 1318.64 1506.61 1328.5C1506.09 1338.36 1502.96 1347.91 1497.52 1356.15C1412.68 1491.08 1300.63 1585.91 1198.06 1609.7C1198.06 1609.7 1196.57 1609.7 1195.48 1610.28C1177.32 1613.63 1158.89 1615.35 1140.41 1615.44C1087.92 1615.07 1036.82 1598.57 994.012 1568.19C959.042 1544.48 928.141 1515.27 902.508 1481.68C725.656 1254.59 713.598 828.766 712.766 780.934C710.852 667.637 727.156 514.078 815.664 426.234C836.725 405.154 861.838 388.56 889.488 377.451C917.138 366.343 946.752 360.952 976.543 361.602H986.855C1016.69 360.913 1046.35 366.286 1074.05 377.395C1101.74 388.505 1126.9 405.12 1147.99 426.234C1236.49 514.078 1252.8 667.473 1250.88 780.934C1248.89 898.973 1227.26 1127.64 1104.9 1332.69C1099.94 1340.93 1092.94 1347.75 1084.57 1352.48C1076.21 1357.22 1066.76 1359.72 1057.15 1359.73C1047.16 1359.75 1037.35 1357.05 1028.78 1351.91C1002.52 1336.15 993.938 1302.13 1009.57 1275.8C1095.25 1132.3 1136.67 974.504 1139.91 779.02C1142.16 649.418 1117.21 552.094 1069.79 505.012C1058.91 494.156 1045.91 485.664 1031.59 480.068C1017.28 474.471 1001.96 471.891 986.605 472.488H977.043Z" fill="white"/>
</g>
<defs>
<clipPath id="clip0_146_5489">
<rect width="2000" height="2000" fill="white"/>
</clipPath>
</defs>
</svg>
