<svg width="426" height="84" viewBox="0 0 426 84" fill="none" xmlns="http://www.w3.org/2000/svg">
<g clip-path="url(#clip0_152_5942)">
<mask id="mask0_152_5942" style="mask-type:luminance" maskUnits="userSpaceOnUse" x="0" y="0" width="426" height="84">
<path d="M426 0H0V83.3144H426V0Z" fill="white"/>
</mask>
<g mask="url(#mask0_152_5942)">
<path d="M359.64 61.6838C358.325 58.169 357.535 54.4801 357.297 50.7354C356.562 44.3269 354.688 39.6545 345.93 38.8537C355.827 37.7179 359.909 32.644 359.909 25.7017C359.909 19.7608 356.497 12.0176 336.965 12.0176H311.214C307.606 12.0176 304.193 12.8184 304.193 19.2932V61.6819H319.445V41.2561H326.934C333.757 41.2561 341.315 42.924 342.117 50.5348C342.441 54.3044 343.111 58.0359 344.124 61.6819L359.64 61.6838ZM319.309 35.317V22.6989C319.309 18.6946 320.247 17.9601 323.656 17.9601H332.152C341.781 17.9601 344.726 21.6991 344.726 26.3052C344.726 32.9127 339.641 35.317 329.142 35.317H319.309Z" fill="white"/>
<mask id="mask1_152_5942" style="mask-type:luminance" maskUnits="userSpaceOnUse" x="-6664" y="-1522" width="7921" height="5404">
<path d="M-6663.7 3881.46H1256.91V-1521.94H-6663.7V3881.46Z" fill="white"/>
</mask>
<g mask="url(#mask1_152_5942)">
<path d="M31.333 62.5731C34.811 61.7498 35.3979 66.6006 32.6556 67.179C29.2223 67.9135 28.4125 63.263 31.333 62.5731ZM39.0763 15.3333C45.3264 14.0873 49.2277 18.2261 50.7882 22.7283C54.0505 32.0887 51.2566 46.0032 46.56 54.7035C45.9802 55.7715 45.4674 56.8172 43.7361 56.6616C42.5395 56.5578 41.5211 55.3043 41.8928 53.7615C42.3312 51.9516 48.0165 45.5582 47.526 30.3605C47.3553 25.0275 45.6014 18.2335 39.1507 19.9617C34.5804 21.1855 34.1198 29.5817 34.4097 34.6031C34.7292 40.3364 35.7171 45.9884 37.2854 50.9505C38.7046 55.4451 41.016 60.1401 45.3634 62.2985C50.0825 64.6425 55.6781 58.2414 57.4689 55.6901C58.1528 54.7109 58.8665 53.3166 59.8921 53.1385C61.4675 52.8714 62.6786 53.7024 62.7604 55.1484C62.8644 56.8397 59.8248 60.1626 59.0147 61.0672C51.0334 70.0273 41.551 69.4933 35.4797 58.4121C31.2364 50.6612 28.4792 34.262 30.2553 25.8138C30.7978 23.2327 31.6081 20.785 33.0498 18.9826C34.9151 16.6536 36.1932 15.9045 39.0763 15.3333ZM83.256 44.1045C83.6574 40.9077 83.1591 37.5106 82.3567 34.7143C80.0379 26.5703 74.1676 22.8173 68.7425 17.0022C65.354 13.5903 61.8312 9.80756 58.3013 6.60337C54.437 3.08023 50.2977 0.907061 43.9587 0.13568C37.9097 -0.591199 31.3775 1.70808 27.6246 4.51176C23.359 7.70113 18.536 13.0489 14.6197 17.0171C7.80508 23.9224 1.42164 28.4247 0.158299 38.9569C-0.522966 44.8135 0.956425 50.7172 4.31985 55.5638C8.0281 60.9486 19.1902 71.355 24.8677 76.673C27.9146 79.5213 33.0717 82.8291 39.1952 83.237C45.1479 83.645 50.9148 82.4658 55.6188 79.0613C58.4726 76.9919 63.8524 71.3994 66.2752 68.8851L67.6277 67.5426C68.9357 66.2567 70.2413 64.9638 71.5444 63.6635C77.6231 57.5814 81.9705 54.2659 83.256 44.1045Z" fill="white"/>
</g>
<path d="M135.449 43.0593V37.1845H153.573V32.7792H118.728C117.524 32.7792 117.055 32.3115 117.055 30.9767V26.9045H152.773V12.3516H108.427V16.6244H144.277V22.5653H108.427V32.7792C108.427 35.316 110.5 37.1845 112.907 37.1845H126.752V43.0593H101.74V47.3321H160.529V43.0593H135.449ZM135.783 51.27H126.42C123.543 60.882 109.631 67.1577 104.616 67.8922L107.091 71.6295C116.192 70.3412 124.623 66.122 131.101 59.6135C137.606 66.086 146.024 70.2987 155.111 71.6295L157.587 67.8922C152.57 67.2239 138.659 60.882 135.783 51.27Z" fill="white"/>
<path d="M179.59 49.0658C177.984 49.0658 177.516 48.1978 177.516 46.8627V18.1585H193.3V13.686H168.955V47.8641C168.955 50.9349 171.229 53.5383 174.707 53.5383H192.163C194.448 53.7607 196.751 53.3928 198.852 52.4703V71.0279H207.346V11.3496H198.852V30.1743H186.612V34.5801H198.852V47.8641C197.38 49.1323 195.507 49.0658 192.163 49.0658H179.59ZM213.298 71.0279H221.792V11.3496H213.298V71.0279Z" fill="white"/>
<path d="M292.354 40.4552C292.354 38.119 290.749 36.2499 287.739 36.2499H264.264V42.0574H279.245C279.349 44.1801 279.009 46.3013 278.248 48.2866C277.487 50.2718 276.322 52.0778 274.826 53.5897C273.33 55.102 271.535 56.288 269.555 57.0719C267.576 57.8561 265.455 58.2215 263.327 58.1451C254.031 58.1451 246.874 48.5324 246.874 36.7838C246.874 25.1018 254.231 15.4224 263.327 15.4224C270.35 15.4224 275.232 20.162 278.108 26.8374H293.023C288.408 16.2902 278.376 9.88184 263.26 9.88184C243.463 9.88184 232.16 21.8309 232.16 36.7838C232.16 53.0718 246.339 64.3533 263.26 63.8193C271.955 63.5521 276.971 60.7485 279.513 57.0771V62.0836H292.354V40.4552Z" fill="white"/>
<path d="M424.581 24.5007C422.506 11.7506 405.119 9.81477 395.218 9.88151C382.845 9.94828 369.403 14.9548 369.737 27.2376C370.271 39.2532 387.192 41.0558 394.416 41.9235C401.572 42.7246 412.275 43.8594 412.275 50.8687C412.275 54.4066 408.595 57.6109 399.701 57.8777C392.144 58.078 384.185 54.8072 382.78 46.3294H369.002C370.873 61.9496 388.732 64.0859 400.303 63.819C422.775 63.2847 426.254 52.3373 425.986 45.5951C425.652 36.7836 416.955 32.4445 402.242 30.5753C388.13 28.773 383.916 27.7049 383.916 23.2324C383.916 16.8907 393.882 15.8226 395.555 15.8226C397.293 15.8226 410 15.7559 410.602 24.5007H424.581Z" fill="white"/>
</g>
</g>
<defs>
<clipPath id="clip0_152_5942">
<rect width="426" height="83.3144" fill="white"/>
</clipPath>
</defs>
</svg>
