<svg width="300" height="64" viewBox="0 0 300 64" fill="none" xmlns="http://www.w3.org/2000/svg">
<g clip-path="url(#clip0_68_536)">
<path d="M29.3477 1.06795C33.3539 0.487854 37.4652 1.4456 40.938 3.47399C42.9975 4.66144 44.5782 6.48739 46.2873 8.10699C49.9314 11.4669 53.3458 15.0682 56.8731 18.5487C59.9488 21.531 62.1135 25.5099 62.6313 29.8003C63.3905 35.2665 61.4205 40.9701 57.5817 44.8945C53.7274 48.889 49.7406 52.7589 45.8474 56.7223C43.1571 59.4593 39.9491 61.8458 36.1648 62.7413C32.7387 63.5122 29.0284 63.6251 25.7075 62.3325C22.5967 61.3397 19.9221 59.3386 17.6445 57.0415C13.6228 52.9964 9.59321 48.9552 5.55978 44.9218C1.39788 40.7132 -0.424176 34.4333 0.681514 28.6245C1.41345 24.8753 3.4107 21.4492 6.08927 18.7629C10.0137 14.8268 13.942 10.9024 17.8547 6.95847C20.9382 3.85164 24.9249 1.46896 29.3477 1.06795ZM26.49 13.7094C23.8776 15.878 23.0211 19.4092 22.7058 22.6484C22.6006 27.3008 23.1846 31.9494 24.1151 36.5006C25.104 40.8183 26.6419 45.2216 29.8343 48.4257C31.7304 50.349 34.5024 51.5676 37.2238 51.0381C38.711 50.8941 40.0425 50.1738 41.2572 49.3523C43.5932 47.612 45.7072 45.4707 47.1166 42.8973C47.8952 41.4373 45.7422 39.9423 44.6327 41.0441C42.6393 43.3917 40.9068 46.2805 37.9207 47.4835C36.0675 48.4218 33.7588 47.7522 32.3883 46.2922C29.9745 44.0964 28.8104 40.9351 27.8643 37.8944C26.4122 32.7047 25.7737 27.2697 26.1863 21.8853C26.4005 19.9737 26.891 17.9842 28.2731 16.5671C29.3827 15.5198 31.0568 15.4847 32.4662 15.7923C33.6731 16.1466 34.4362 17.3185 34.9579 18.3969C35.8962 20.7446 36.1375 23.3219 35.9857 25.8292C35.7677 30.1974 35.1097 34.6669 33.0307 38.5718C32.5518 39.6853 31.5435 40.7443 31.9289 42.0641C32.1976 42.9946 33.3694 43.088 34.113 43.3294C38.1582 36.9016 39.8673 29.0528 39.077 21.5115C38.7266 19.012 38.0452 16.4113 36.3011 14.5114C33.8483 11.8017 29.3788 11.6421 26.49 13.7094ZM23.3988 47.6042C22.5267 47.869 21.8337 48.8306 22.1412 49.7767C22.3398 50.7967 23.4961 51.5014 24.5044 51.0615C25.6724 50.7656 26.0228 49.1538 25.3688 48.2311C24.9055 47.6704 24.0918 47.503 23.3988 47.6042Z" fill="#E60012"/>
<path d="M109.899 20.6316C113.866 20.2267 118.126 20.8964 121.349 23.392C124.012 25.397 125.647 28.6674 125.667 32.0078C125.967 35.3326 124.433 38.6225 122.038 40.8611C118.585 44.038 113.465 44.7621 108.98 44.0964C103.845 43.4696 98.9319 39.5101 98.2895 34.1686C97.3979 29.4304 100.073 24.4042 104.308 22.2396C106.033 21.313 107.964 20.8458 109.899 20.6316ZM110.752 23.4076C108.755 23.6801 107.244 25.2802 106.228 26.9115C104.367 30.0573 104.441 34.1063 105.928 37.3805C107.26 40.1603 110.456 42.4184 113.606 41.34C118.145 39.7126 119.917 34.044 118.675 29.664C118.071 26.0628 114.633 22.4693 110.752 23.4076Z" fill="#E60012"/>
<path d="M224.845 20.8847C227.683 20.6083 230.548 20.6784 233.402 20.7368C235.886 20.8224 238.253 21.9437 240.094 23.5828C241.333 24.6456 241.78 26.2691 242.38 27.7252C240.301 27.7408 238.23 27.7369 236.158 27.7486C235.356 26.016 234.582 23.8631 232.647 23.1428C231.23 22.5549 229.622 22.5705 228.127 22.6873C226.593 23.2791 225.257 24.4665 224.615 26.0005C222.66 29.6602 222.322 34.4061 224.708 37.9489C225.892 39.479 227.461 41.2271 229.583 41.1297C232.226 41.558 234.258 39.4245 235.703 37.5168C236.201 36.5435 236.201 35.4027 236.45 34.3554C234.297 34.3438 232.148 34.3321 230.003 34.3321C230.003 33.752 230.003 32.5879 230.003 32.0039C233.608 32.0428 237.213 31.8871 240.819 32.0234C241.465 32.0545 242.096 32.5178 242.162 33.1952C242.473 36.5435 242.251 39.915 242.294 43.2749C240.313 43.2594 238.339 43.2594 236.365 43.271C236.373 42.7493 236.388 41.7098 236.396 41.1881C235.119 42.434 233.604 43.7616 231.697 43.6643C229.4 43.6837 226.982 43.9991 224.778 43.1932C220.994 41.702 217.72 38.5446 216.75 34.4956C216.602 32.1947 216.299 29.703 217.264 27.5305C218.008 25.6306 219.086 23.7073 220.893 22.6523C222.115 21.8931 223.408 21.1378 224.845 20.8847Z" fill="#E60012"/>
<path d="M278.564 22.2396C282.554 20.1333 287.277 20.7017 291.622 20.838C293.977 21.4025 296.535 22.2668 298.112 24.2251C298.416 25.031 298.696 25.8525 298.961 26.674C296.932 26.674 294.912 26.6701 292.891 26.6623C292.404 25.3269 291.626 23.9799 290.212 23.4776C287.904 22.5588 285.124 22.5316 282.99 23.9215C281.986 24.4042 281.92 25.7085 281.963 26.6662C282.029 27.4293 282.874 27.6512 283.45 27.9432C285.949 28.9594 288.706 28.7258 291.295 29.3876C294.285 30.0378 297.656 31.1746 299.116 34.1179C299.432 35.8582 299.65 37.8555 298.704 39.4517C298.1 40.9545 296.625 41.8111 295.359 42.6909C292.35 44.2716 288.811 43.9095 285.537 43.9212C282.683 44.0458 279.93 42.8467 277.703 41.1336C276.267 39.8761 275.539 38.0657 275.118 36.2476C277.131 36.2554 279.148 36.2631 281.164 36.2709C281.951 39.3583 285.163 41.4684 288.297 41.1842C290.224 41.5697 292.408 40.6742 293.218 38.8327C293.693 37.6725 292.918 36.5201 291.886 36.0607C288.386 34.3671 284.341 34.9239 280.732 33.6118C279.117 33.0901 277.477 32.3309 276.422 30.9449C274.729 28.1573 275.282 23.5983 278.564 22.2396Z" fill="#E60012"/>
<path d="M78.2243 21.3636C80.4123 21.3792 82.6042 21.3792 84.7962 21.3636C84.7962 26.3275 84.8078 31.2914 84.7611 36.2554C84.8 37.6881 84.7027 39.2103 85.3062 40.5496C89.3746 40.464 93.4431 40.5224 97.5116 40.5068C97.5077 41.4256 97.5116 42.3483 97.5116 43.271C91.8547 43.2282 86.1977 43.3333 80.5408 43.2632C79.2366 43.1776 78.0219 41.8656 78.2555 40.5068C78.1348 34.1257 78.271 27.7447 78.2243 21.3636Z" fill="#E60012"/>
<path d="M126.765 21.3675C134.61 21.3675 142.455 21.3675 150.296 21.3675C150.292 22.2902 150.296 23.209 150.296 24.1317C147.75 24.1317 145.208 24.1356 142.666 24.1356C142.666 30.5167 142.666 36.8938 142.666 43.2749C140.333 43.2632 138.001 43.2555 135.669 43.2749C135.669 36.8938 135.669 30.5167 135.669 24.1356C132.703 24.1317 129.736 24.1356 126.765 24.1317C126.762 23.209 126.765 22.2902 126.765 21.3675Z" fill="#E60012"/>
<path d="M152.628 21.3675C160.473 21.3675 168.314 21.3675 176.159 21.3675C176.151 22.2902 176.159 23.209 176.159 24.1317C173.118 24.1317 170.081 24.1356 167.044 24.1317C167.044 30.5128 167.041 36.8938 167.044 43.2749C164.783 43.2593 162.521 43.2593 160.259 43.2749C160.259 36.8938 160.259 30.5128 160.259 24.1356C157.712 24.1356 155.174 24.1317 152.628 24.1317C152.624 23.209 152.628 22.2902 152.628 21.3675Z" fill="#E60012"/>
<path d="M181.968 21.4726C188.01 21.2001 194.064 21.4531 200.114 21.3675C200.107 22.2902 200.114 23.2129 200.114 24.1356C195.878 24.1901 191.643 24.0032 187.418 24.194C186.943 24.2251 186.484 24.5677 186.441 25.0661C186.274 26.8064 186.317 28.5545 186.297 30.3025C190.833 30.2831 195.368 30.3142 199.9 30.2986C199.892 31.2213 199.9 32.144 199.9 33.0668C195.376 33.0473 190.852 33.0745 186.324 33.0629C186.461 35.5312 185.892 38.1903 186.85 40.5496C191.269 40.4601 195.692 40.5263 200.114 40.5029C200.107 41.4217 200.114 42.3483 200.114 43.271C194.103 43.2321 188.092 43.3294 182.081 43.2632C181.135 43.2282 180.29 42.4729 179.916 41.6397C179.605 39.1519 179.784 36.6291 179.756 34.1257C179.815 30.5828 179.643 27.0361 179.807 23.4932C180.064 22.5043 180.854 21.4726 181.968 21.4726Z" fill="#E60012"/>
<path d="M249.38 21.4843C253.584 21.2078 257.801 21.4142 262.013 21.3636C264.61 21.3753 267.464 21.4921 269.675 23.0338C271.68 24.8948 271.852 28.2157 270.466 30.5011C269.854 31.9611 268.262 32.5217 266.95 33.168C267.725 33.643 268.745 33.9077 269.185 34.7798C270.707 37.361 270.139 40.5613 271.353 43.2593C269.006 43.2632 266.662 43.2593 264.318 43.2788C263.828 40.974 263.835 38.4667 262.765 36.3293C260.826 33.6546 257.011 34.4761 254.172 34.3243C254.168 37.3065 254.168 40.2888 254.168 43.2749C251.977 43.2632 249.785 43.2593 247.597 43.2749C247.643 36.5357 247.511 29.8003 247.628 23.0649C247.639 22.1422 248.535 21.5505 249.38 21.4843ZM254.254 24.8325C254.059 27.0049 254.168 29.1968 254.157 31.3771C257.018 31.2486 260.075 31.8014 262.792 30.649C264.817 29.5161 265 26.5533 263.625 24.8403C261.663 23.3491 259 23.8047 256.715 23.7268C255.87 23.7657 254.484 23.7424 254.254 24.8325Z" fill="#E60012"/>
<path d="M26.4898 13.7094C29.3786 11.6421 33.8481 11.8017 36.3008 14.5114C38.045 16.4113 38.7264 19.012 39.0768 21.5115C39.8671 29.0528 38.1579 36.9016 34.1128 43.3294C33.3692 43.088 32.1973 42.9946 31.9287 42.0641C31.5433 40.7443 32.5516 39.6853 33.0305 38.5718C35.1095 34.6669 35.7675 30.1974 35.9855 25.8292C36.1373 23.3219 35.8959 20.7445 34.9577 18.3969C34.436 17.3185 33.6729 16.1466 32.466 15.7923C31.0566 15.4847 29.3825 15.5198 28.2729 16.5671C26.8908 17.9842 26.4003 19.9737 26.1861 21.8853C25.7734 27.2697 26.4119 32.7047 27.8641 37.8944C28.8102 40.9351 29.9743 44.0964 32.3881 46.2922C33.7585 47.7522 36.0673 48.4218 37.9205 47.4835C40.9066 46.2805 42.6391 43.3917 44.6325 41.0441C45.742 39.9423 47.895 41.4373 47.1164 42.8973C45.707 45.4707 43.5929 47.612 41.257 49.3523C40.0423 50.1738 38.7108 50.8941 37.2236 51.0381C34.5022 51.5676 31.7301 50.349 29.8341 48.4257C26.6416 45.2215 25.1038 40.8183 24.1149 36.5006C23.1844 31.9494 22.6004 27.3008 22.7055 22.6484C23.0209 19.4092 23.8774 15.878 26.4898 13.7094Z" fill="white"/>
<path d="M23.3991 47.6042C24.0921 47.503 24.9058 47.6704 25.3691 48.2311C26.0232 49.1538 25.6728 50.7656 24.5048 51.0615C23.4965 51.5014 22.3402 50.7967 22.1416 49.7767C21.834 48.8306 22.527 47.869 23.3991 47.6042Z" fill="white"/>
</g>
<defs>
<clipPath id="clip0_68_536">
<rect width="300" height="64" fill="white"/>
</clipPath>
</defs>
</svg>
